<svg xmlns="http://www.w3.org/2000/svg" viewBox="0 0 24 24" width="120" height="120" fill="none">
	<title>BaatCheet</title>
	<path
		d="M7.2 6.6h9.6a3.6 3.6 0 0 1 3.6 3.6v3.9a3.6 3.6 0 0 1-3.6 3.6H11l-3.9 2.7v-2.7H7.2a3.6 3.6 0 0 1-3.6-3.6v-3.9a3.6 3.6 0 0 1 3.6-3.6Z"
		stroke="currentColor"
		stroke-width="1.8"
		stroke-linejoin="round"
	/>
	<path
		d="M7.6 12.1c2.1-2.8 4.5 2.2 7-.7 0 0 1.2-1.5 3.2-.7"
		stroke="currentColor"
		stroke-width="1.8"
		stroke-linecap="round"
	/>
	<circle cx="9.3" cy="14.6" r="0.75" fill="currentColor" />
	<circle cx="12.2" cy="14.9" r="0.55" fill="currentColor" fill-opacity="0.85" />
</svg>